{"title":"Roberto Pires - 1962 - Tocaia.No.Asfalto.1962.DVDRip.x264","uid":8800625,"size":1590864897,"categoryP":"video","categoryS":"movies","magnet":"?xt=urn:btih:59ee584fd43f1583025c61a34375db1f1ac274ba&amp;dn=Roberto+Pires+-+1962+-+Tocaia.No.Asfalto.1962.DVDRip.x264&amp;tr=udp%3A%2F%2Ftracker.openbittorrent.com%3A80&amp;tr=udp%3A%2F%2Fopen.demonii.com%3A1337&amp;tr=udp%3A%2F%2Ftracker.coppersurfer.tk%3A6969&amp;tr=udp%3A%2F%2Fexodus.desync.com%3A6969","seeders":2,"leechers":0,"uploader":"rpessoa","files":1,"time":1376191551,"description":"The psychology and life of Brazilian hitmen, common in the Northeast part of the country. In this particular case, the story revolves around a young and idealistic politician from Salvador, whom the enemies are eager to eliminate. \n\nWhen watching &quot;Tocaia no Asfalto&quot; you consequently ask yourself: Where has Brazilian and specially Baiano Cinema gone? It's a simple naive story trapped in a beautiful movie. The characters are crude and the theme is kinda dated, but everything is recognizable. The beautiful landscape from Salvador appear as never seen since previous &quot;a Grande Feira&quot; in all it's beauty. The innocence of the Hit-man - that won't shoot his victim and consequently save his life because he is inside a church - is very humane. After seen this very significant piece of Brazilian Cinema, I wonder if there shouldn't be more of it. Why has it stopped? It looks promising - maybe even more than other cinemas from other countries - but where is it? It faded, just like the life of the hit-man. Perhaps that's the problem. We where as innocent as he was. From IMDb.\n\n &lt;a href=&quot;\nhttp://www.imdb.com/title/tt0197958/&quot; rel=&quot;nofollow&quot; target=&quot;_NEW&quot;&gt;\nhttp://www.imdb.com/title/tt0197958/&lt;/a&gt;\n\n\nGeneral \nUnique ID : 321108616817962460381231874768734550934 (0xF19345223251A1DF2554A01538207B96) \nComplete name : Tocaia.No.Asfalto.1962.DVDRip.x264.mkv \nFormat : Matroska \nFormat version : Version 2 \nFile size : 1.48 GiB \nDuration : 1h 41mn \nOverall bit rate : 2 092 Kbps \nWriting application : HandBrake 0.9.9 \nWriting library : libmkv 0.6.5 \n\nVideo \nID : 1 \nFormat : AVC \nFormat/Info : Advanced Video Codec \nFormat profile : &lt;a class=&quot;__cf_email__&quot; href=&quot;/cdn-cgi/l/email-protection&quot; data-cfemail=&quot;4b03222c230b0778657a&quot;&gt;[email&amp;#160;protected]&lt;/a&gt;&lt;script cf-hash='f9e31' type=&quot;text/javascript&quot;&gt;\n/* &lt;![CDATA[ */!function(){try{var t=&quot;currentScript&quot;in document?document.currentScript:function(){for(var t=document.getElementsByTagName(&quot;script&quot;),e=t.length;e--;)if(t[e].getAttribute(&quot;cf-hash&quot;))return t[e]}();if(t&amp;&amp;t.previousSibling){var e,r,n,i,c=t.previousSibling,a=c.getAttribute(&quot;data-cfemail&quot;);if(a){for(e=&quot;&quot;,r=parseInt(a.substr(0,2),16),n=2;a.length-n;n+=2)i=parseInt(a.substr(n,2),16)^r,e+=String.fromCharCode(i);e=document.createTextNode(e),c.parentNode.replaceChild(e,c)}}}catch(u){}}();/* ]]&gt; */&lt;/script&gt; \nFormat settings, CABAC : Yes \nFormat settings, ReFrames : 11 frames \nCodec ID : V_MPEG4/ISO/AVC \nDuration : 1h 41mn \nBit rate : 1 827 Kbps \nWidth : 720 pixels \nHeight : 480 pixels \nDisplay aspect ratio : 4:3 \nFrame rate mode : Constant \nFrame rate : 23.976 fps \nStandard : NTSC \nColor space : YUV \nChroma subsampling : 4:2:0 \nBit depth : 8 bits \nScan type : Progressive \nBits/(Pixel*Frame) : 0.220 \nStream size : 1.29 GiB (87%) \nWriting library : x264 core 130 r2273 b3065e6 \nEncoding settings : cabac=1 // deblock=1:-2:-2 / analyse=0x3:0x113 / me=umh / subme=11 / psy=1 / psy_rd=1.00:0.00 // me_range=32 / chroma_me=1 / trellis=2 / 8x8dct=1 / cqm=0 / deadzone=21,11 / fast_pskip=0 / chroma_qp_offset=-2 / threads=12 / lookahead_threads=2 / sliced_threads=0 / nr=0 / decimate=1 / interlaced=0 / bluray_compat=0 / constrained_intra=0 / bframes=9 / b_pyramid=2 / b_adapt=2 / b_bias=0 / direct=3 / weightb=1 / open_gop=0 / weightp=2 / keyint=240 / keyint_min=24 / scenecut=40 / intra_refresh=0 / rc_lookahead=60 / rc=crf / mbtree=1 / crf=18.8 / qcomp=0.60 / qpmin=0 / qpmax=69 / qpstep=4 / ip_ratio=1.40 / aq=1:1.05 \nLanguage : English \nDefault : Yes \nForced : No \nColor primaries : BT.601 NTSC \nTransfer characteristics : BT.709 \nMatrix coefficients : BT.601 \n\nAudio \nID : 2 \nFormat : AC-3 \nFormat/Info : Audio Coding 3 \nMode extension : CM (complete main) \nFormat settings, Endianness : Big \nCodec ID : A_AC3 \nDuration : 1h 41mn \nBit rate mode : Constant \nBit rate : 224 Kbps \nChannel(s) : 2 channels \nChannel positions : Front: L R \nSampling rate : 48.0 KHz \nBit depth : 16 bits \nCompression mode : Lossy \nStream size : 162 MiB (11%) \nLanguage : Portuguese \nDefault : Yes \nForced : No \n\nMenu \n00:00:00.000 : Chapter 1 \n00:05:29.620 : Chapter 2 \n00:15:05.821 : Chapter 3 \n00:24:06.403 : Chapter 4 \n00:38:20.256 : Chapter 5 \n00:54:18.505 : Chapter 6 \n01:07:06.689 : Chapter 7 \n01:23:24.791 : Chapter 8 \n01:32:18.199 : Chapter 9 \n\n","torrent":{"xt":"urn:btih:59ee584fd43f1583025c61a34375db1f1ac274ba","amp;dn":"Roberto+Pires+-+1962+-+Tocaia.No.Asfalto.1962.DVDRip.x264","amp;tr":["udp%3A%2F%2Ftracker.openbittorrent.com%3A80","udp%3A%2F%2Fopen.demonii.com%3A1337","udp%3A%2F%2Ftracker.coppersurfer.tk%3A6969","udp%3A%2F%2Fexodus.desync.com%3A6969"],"infoHash":"59ee584fd43f1583025c61a34375db1f1ac274ba","infoHashBuffer":{"type":"Buffer","data":[89,238,88,79,212,63,21,131,2,92,97,163,67,117,219,31,26,194,116,186]},"announce":[],"urlList":[]}}